<svg width="1600" height="1500" viewBox="0 0 1600 1500" xmlns="http://www.w3.org/2000/svg">
  <defs>
    <linearGradient id="sky" x1="0" y1="0" x2="0" y2="1">
      <stop stop-color="#FBF7F1"/>
      <stop offset=".52" stop-color="#F3F5F5"/>
      <stop offset="1" stop-color="#DCE8EE"/>
    </linearGradient>
    <linearGradient id="mountain" x1=".2" y1="0" x2=".8" y2="1">
      <stop stop-color="#DCE8EF"/>
      <stop offset="1" stop-color="#9EB6C5"/>
    </linearGradient>
    <filter id="mist"><feGaussianBlur stdDeviation="34"/></filter>
  </defs>
  <rect width="1600" height="1500" fill="url(#sky)"/>
  <circle cx="1280" cy="210" r="96" fill="#D5A048" opacity=".13"/>
  <path d="M0 790 280 493l188 209 248-370 319 458z" fill="#E1EBF0" opacity=".82"/>
  <path d="m525 790 291-465 133 183 105-125 350 407z" fill="url(#mountain)" opacity=".7"/>
  <path d="m816 325 67 92 66 91-79-42-48 41-61-29z" fill="#F9FBFC" opacity=".82"/>
  <path d="m1180 790 170-246 250 246z" fill="#C6D8E2" opacity=".68"/>
  <ellipse cx="790" cy="770" rx="750" ry="100" fill="#FFF" opacity=".55" filter="url(#mist)"/>
  <path d="M0 900c271-97 455 9 697-51 248-61 515-57 903 20v631H0z" fill="#D7E5EC" opacity=".58"/>
  <path d="M0 1100c278-58 498 18 773-31 296-53 528-38 827 23v408H0z" fill="#EDF3F5" opacity=".86"/>
  <g fill="#7893A3" opacity=".35">
    <path d="m122 817-20 80h15l-27 67h24l-34 80h84l-33-80h23l-27-67h15z"/>
    <path d="m153 875-14 57h11l-19 48h16l-23 57h60l-23-57h16l-19-48h11z"/>
    <path d="m1460 789-22 87h17l-29 73h25l-36 88h91l-36-88h25l-29-73h16z"/>
  </g>
  <g fill="none" stroke="#B88631" opacity=".18">
    <circle cx="1325" cy="430" r="72" stroke-width="2"/>
    <circle cx="1325" cy="430" r="50"/>
    <path d="M1325 342v176M1237 430h176M1263 368l124 124M1387 368l-124 124"/>
  </g>
</svg>
