<svg width="1600" height="1100" viewBox="0 0 1600 1100" xmlns="http://www.w3.org/2000/svg">
  <defs>
    <linearGradient id="sky" x1="0" y1="0" x2="0" y2="1">
      <stop stop-color="#F9F4EC"/>
      <stop offset=".6" stop-color="#EEF3F5"/>
      <stop offset="1" stop-color="#C8DCE7"/>
    </linearGradient>
    <radialGradient id="glow">
      <stop stop-color="#F1C36C" stop-opacity=".38"/>
      <stop offset="1" stop-color="#F1C36C" stop-opacity="0"/>
    </radialGradient>
  </defs>
  <rect width="1600" height="1100" fill="url(#sky)"/>
  <circle cx="230" cy="270" r="190" fill="url(#glow)"/>
  <circle cx="230" cy="270" r="72" fill="#D7A348" opacity=".2"/>
  <path d="M0 684 206 470l174 214 122-135 153 135z" fill="#D4E2EA" opacity=".7"/>
  <path d="M1060 684 1315 406l285 278z" fill="#BFD2DE" opacity=".72"/>
  <path d="M0 659c244 43 450 12 650 8 325-7 625 48 950 4v429H0z" fill="#D5E5ED" opacity=".8"/>
  <path d="M0 770c278-36 464 38 735 3 309-39 551 28 865-2v329H0z" fill="#EAF2F5" opacity=".88"/>
  <g fill="none" stroke="#FFF" stroke-linecap="round">
    <path d="M42 735c213-28 398 30 589-2 259-43 470 35 730-3 71-10 137-10 199-4" stroke-width="8" opacity=".54"/>
    <path d="M0 860c275 25 471-24 741 3 299 30 527-17 859 0" stroke-width="6" opacity=".48"/>
    <path d="M115 975c249-30 421 24 655-5 270-33 482 22 714-3" stroke-width="8" opacity=".35"/>
  </g>
  <g fill="#768E9E" opacity=".4">
    <path d="m1430 546-20 80h15l-27 67h24l-34 80h84l-33-80h23l-27-67h15z"/>
    <path d="m1492 600-14 57h11l-19 48h16l-23 57h60l-23-57h16l-19-48h11z"/>
  </g>
  <g fill="#728C9C" opacity=".4">
    <path d="M1015 246c25-17 50-17 75 0-25-8-50-8-75 0z"/>
    <path d="M1090 295c18-12 36-12 54 0-18-6-36-6-54 0z"/>
  </g>
</svg>
