<svg width="1600" height="900" viewBox="0 0 1600 900" xmlns="http://www.w3.org/2000/svg">
<defs><linearGradient id="sky" x1="0" y1="0" x2="0" y2="1"><stop stop-color="#FAF7F1"/><stop offset="1" stop-color="#EEF6FA"/></linearGradient><linearGradient id="sea" x1="0" y1="0" x2="0" y2="1"><stop stop-color="#DCECF4"/><stop offset="1" stop-color="#BBD4E2"/></linearGradient></defs>
<rect width="1600" height="900" fill="url(#sky)"/>
<circle cx="1320" cy="210" r="78" fill="#F2D59A" opacity=".55"/><path d="M1244 213h150M1260 239h115" stroke="#fff" stroke-width="16" stroke-linecap="round" opacity=".8"/>
<g fill="#E3EEF5"><path d="M120 560 360 265l215 295z"/><path d="M360 560 560 315l175 245z"/><path d="M700 560 905 300l230 260z"/><path d="M1030 560 1240 330l230 230z"/><path d="M1320 560 1500 380l145 180z"/></g>
<g fill="#F8FBFD" opacity=".78"><path d="M360 265l-58 72 72-34 42 46 58-84z"/><path d="M905 300l-78 99 90-38 50 62 65-123z"/><path d="M1240 330l-55 64 70-28 54 49 53-85z"/></g>
<g fill="#BED4E1" opacity=".55"><path d="M0 586c130-35 205 16 315-15 110-32 185-22 285 9s182 17 282-5c105-24 235-12 330 18s238 17 388-19v326H0z"/></g>
<g fill="url(#sea)"><path d="M0 638c140 28 260 28 400 0s272-28 414 0 268 28 400 0 260-30 386 0v262H0z"/></g>
<g stroke="#6C8DA0" stroke-width="7" opacity=".45" fill="none"><path d="M0 706c120 24 242 24 365 0M420 740c140 22 300 20 438 0M965 718c158 18 300 22 445-2"/><path d="M620 804c220 24 430 25 650 0"/></g>
<g transform="translate(995 300)">
  <path d="M42 280c90 40 267 38 386-3 32-11 61-27 82-48-15 78-109 134-250 143-143 9-245-22-288-92z" fill="#263B4D"/>
  <path d="M13 245c54 54 92 63 152 67" stroke="#263B4D" stroke-width="18" fill="none" stroke-linecap="round"/>
  <path d="M0 240c-4-73 43-101 76-83 26 14 22 54-4 65" stroke="#263B4D" stroke-width="18" fill="none" stroke-linecap="round"/>
  <circle cx="70" cy="165" r="8" fill="#0D2030"/><path d="M38 133c20-22 50-21 70 0" stroke="#263B4D" stroke-width="12" fill="none" stroke-linecap="round"/>
  <path d="M514 226c54 21 76-15 82-77 17 54 4 108-34 140" stroke="#263B4D" stroke-width="18" fill="none" stroke-linecap="round"/>
  <path d="M250 30v275" stroke="#24384A" stroke-width="7"/><path d="M138 92c107-42 218-42 315 0l-28 170c-84-30-179-30-258 0z" fill="#3E5D73" stroke="#24384A" stroke-width="4"/>
  <path d="M250 34 138 92M250 34l203 58M250 305 166 262M250 305l175-43" stroke="#24384A" stroke-width="3" opacity=".8"/>
  <path d="M180 115c80-30 160-30 240 0M170 150c80-25 170-25 260 0M165 190c80-22 175-22 270 0" stroke="#718EA0" stroke-width="3" opacity=".55"/>
  <g stroke="#B9822B" stroke-width="3" fill="none" transform="translate(274 165)"><circle r="28"/><circle r="10"/><path d="M0-38v76M-38 0h76M-27-27l54 54M27-27-27 27"/></g>
  <g fill="#334B5D" stroke="#B9822B" stroke-width="3"><circle cx="238" cy="327" r="24"/><circle cx="296" cy="334" r="21"/><circle cx="350" cy="332" r="19"/><circle cx="401" cy="322" r="18"/></g>
</g>
<g fill="#9DB6C6" opacity=".8"><path d="M1090 175c17-13 33-13 50 0-17-6-33-6-50 0z"/><path d="M1150 210c22-16 44-16 66 0-22-7-44-7-66 0z"/><path d="M131 184c18-13 36-13 54 0-18-6-36-6-54 0z"/></g>
</svg>
